<svg width="400" height="400" viewBox="0 0 400 400" fill="none" xmlns="http://www.w3.org/2000/svg">
<path d="M205.732 191.938H203.899L199.775 193.282L129.903 218.594L92.1025 232.258L88.8952 233.602L87.2916 234.946L87.0625 236.514L88.208 237.858L90.0407 238.978L98.0589 241.89L99.4334 242.114L99.6625 242.122L128.299 252.426L130.59 253.098L132.193 253.322H134.713L138.583 252.642L141.332 251.522L143.623 250.178L145.913 248.162L148.433 246.146L151.412 243.682L153.932 241.666L156.91 239.202L161.95 235.17L164.012 233.602L164.241 233.378H164.928L164.699 234.274L161.95 237.41L159.888 239.874L157.826 242.114L155.764 244.578L154.161 246.146L152.099 248.61L149.579 251.298L147.517 253.762L145.913 256.226L144.768 259.362L144.31 261.378L144.928 266.607L145.844 269.743L151.208 284.682L155.332 295.434L155.561 296.33L155.42 296.632L155.561 296.77L158.539 304.61L159.913 307.298L161.288 308.418H162.662L164.037 307.298L165.412 304.834L169.535 294.306L177.553 273.922L182.364 261.602L186.946 249.954L191.757 237.634L196.797 224.866L201.608 212.546L206.648 199.778L208.022 195.746V193.954L207.106 192.61L205.732 191.938Z" fill="#4D96FF"/>
<path d="M247.746 144.625H245.234L239.583 146.538L143.832 182.559L92.0317 202.003L87.6365 203.916L85.4389 205.829L85.125 208.06L86.6947 209.973L89.2062 211.567L100.194 215.711L102.078 216.029L102.392 216.042L141.634 230.705L144.773 231.662L146.971 231.981H150.424L155.716 231.662L159.717 230.493L163.673 228.9L166.812 226.031L170.265 223.162L174.347 219.655L177.8 216.786L181.881 213.28L188.788 207.542L191.613 205.311L191.927 204.992H192.869L192.555 206.267L188.788 210.73L185.962 214.236L183.137 217.424L180.311 220.93L178.114 223.162L175.288 226.668L171.835 230.493L169.01 234L165.933 238.994L164.866 241.929L163.861 245.369L163.61 250.15L164.866 254.613L173.028 276.608L178.679 291.909L178.993 293.184L178.801 293.614L178.993 293.809L183.074 304.966L184.958 308.791L186.841 310.385H188.725L190.609 308.791L192.492 305.285L198.143 290.303L209.131 261.295L215.724 243.762L222.003 227.186L228.595 209.654L235.502 191.484L242.095 173.952L249.001 155.782L250.885 150.044V147.494L249.629 145.581L247.746 144.625Z" fill="#323232"/>
<path d="M294.092 101.875H290.834L283.503 104.305L159.285 150.061L92.085 174.761L86.3832 177.191L83.5323 179.62L83.125 182.455L85.1614 184.884L88.4195 186.909L102.674 192.173L105.118 192.578L105.525 192.594L156.434 211.22L160.507 212.435L163.358 212.84H167.838L174.761 211.625L179.649 209.601L183.721 207.171L187.794 203.527L192.274 199.883L197.569 195.428L202.049 191.784L207.343 187.33L216.303 180.041L219.969 177.207L220.376 176.802H221.598L221.19 178.422L216.303 184.091L212.638 188.545L208.972 192.594L205.307 197.048L202.456 199.883L198.79 204.337L194.31 209.196L190.645 213.65L187.794 218.104L185.758 223.773L184.943 227.417V235.921L186.572 241.59L197.161 269.529L204.492 288.966L204.9 290.585L204.65 291.131L204.9 291.379L210.194 305.551L212.638 310.41L215.081 312.435H217.525L219.969 310.41L222.412 305.956L229.743 286.925L243.998 250.077L252.55 227.806L260.696 206.75L269.249 184.479L278.209 161.399L286.761 139.128L295.721 116.047L298.165 108.759V105.519L296.536 103.09L294.092 101.875Z" fill="#6BCB77"/>
</svg>
